<?xml version="1.0" standalone="no"?>
<!DOCTYPE svg PUBLIC "-//W3C//DTD SVG 20010904//EN"
 "http://www.w3.org/TR/2001/REC-SVG-20010904/DTD/svg10.dtd">
<svg version="1.0" xmlns="http://www.w3.org/2000/svg"
 width="512.000000pt" height="512.000000pt" viewBox="0 0 512.000000 512.000000"
 preserveAspectRatio="xMidYMid meet">
<metadata>
Created by potrace 1.14, written by Peter Selinger 2001-2017
</metadata>
<g transform="translate(0.000000,512.000000) scale(0.100000,-0.100000)"
fill="#000000" stroke="none">
<path d="M2278 4824 c-712 -103 -1316 -577 -1583 -1243 -50 -126 -95 -284
-122 -431 -22 -122 -25 -492 -4 -625 7 -49 13 -97 13 -105 -2 -33 20 -190 38
-275 152 -736 753 -1348 1490 -1519 282 -65 618 -65 900 0 737 171 1338 783
1490 1519 18 85 40 242 38 275 0 8 6 56 13 105 21 133 18 503 -4 625 -55 302
-160 566 -318 802 -322 478 -826 793 -1398 872 -138 20 -418 19 -553 0z"/>
</g>
</svg>
